<svg id="visual" viewBox="0 0 900 600" width="900" height="600" xmlns="http://www.w3.org/2000/svg" xmlns:xlink="http://www.w3.org/1999/xlink" version="1.1"><rect x="0" y="0" width="900" height="600" fill="#229e9a"></rect><defs><linearGradient id="grad1_0" x1="33.3%" y1="0%" x2="100%" y2="100%"><stop offset="20%" stop-color="#229e9a" stop-opacity="1"></stop><stop offset="80%" stop-color="#229e9a" stop-opacity="1"></stop></linearGradient></defs><defs><linearGradient id="grad2_0" x1="0%" y1="0%" x2="66.7%" y2="100%"><stop offset="20%" stop-color="#229e9a" stop-opacity="1"></stop><stop offset="80%" stop-color="#229e9a" stop-opacity="1"></stop></linearGradient></defs><g transform="translate(900, 0)"><path d="M0 486.7C-48.1 445.2 -96.2 403.6 -160.3 387.1C-224.5 370.7 -304.8 379.3 -344.2 344.2C-383.6 309 -382.2 230 -399.1 165.3C-416.1 100.6 -451.4 50.3 -486.7 0L0 0Z" fill="#0039bb"></path></g><g transform="translate(0, 600)"><path d="M0 -486.7C53.7 -457.3 107.4 -427.9 169.5 -409.3C231.7 -390.7 302.2 -382.9 344.2 -344.2C386.1 -305.5 399.5 -235.9 418.5 -173.4C437.5 -110.8 462.1 -55.4 486.7 0L0 0Z" fill="#0039bb"></path></g></svg>